<svg width="1440" height="145" viewBox="0 0 1440 145" fill="none" xmlns="http://www.w3.org/2000/svg">
<rect width="1440" height="145" fill="white"/>
<path fill-rule="evenodd" clip-rule="evenodd" d="M777.316 81.0765C778.111 81.0765 778.744 81.7044 778.744 82.4915C778.744 83.2874 778.111 83.9065 777.309 83.9065C776.515 83.9065 775.87 83.2874 775.87 82.4915C775.87 81.7044 776.515 81.0765 777.309 81.0765H777.316ZM685.376 83.7172H681.442L681.274 82.7533C679.476 83.7172 677.873 83.8747 676.817 83.8747C673.93 83.8747 672.394 82.0069 672.394 79.421C672.394 76.3717 674.186 75.2822 677.392 75.2822H680.653V74.6242C680.653 73.0678 680.471 72.6114 677.993 72.6114H673.97L674.365 68.791H678.778C684.192 68.791 685.38 70.4536 685.38 74.6561V83.7172H685.376ZM743.993 77.7266C743.993 80.8395 742.669 83.8587 737.126 83.8587C731.578 83.8587 730.228 80.8395 730.228 77.7266V74.7197C730.228 71.6068 731.576 68.5876 737.124 68.5876C742.68 68.5876 744.01 71.6068 744.01 74.7215V77.7283L743.993 77.7266ZM759.108 77.7266C759.108 80.8395 757.782 83.8587 752.241 83.8587C746.691 83.8587 745.341 80.8395 745.341 77.7266V74.7197C745.341 71.6068 746.689 68.5876 752.239 68.5876C757.777 68.5876 759.106 71.6068 759.106 74.7215V77.7283L759.108 77.7266ZM777.309 81.2994C776.672 81.2994 776.143 81.83 776.143 82.4897C776.143 83.1619 776.672 83.6889 777.316 83.6889C777.963 83.7066 778.482 83.176 778.482 82.5039C778.482 81.8495 777.963 81.3153 777.316 81.3153H777.309V81.2994ZM669.245 83.6872H664.527V72.615H662.166V68.7945H664.525V66.504C664.525 63.3911 665.855 61.5374 669.64 61.5374H672.791V65.3579H670.824C669.348 65.3579 669.25 65.8885 669.25 66.8861L669.232 68.7963H672.802L672.383 72.6167H669.234V83.6889L669.245 83.6872ZM777.038 83.3157H776.779V81.7363C776.925 81.7186 777.052 81.7009 777.253 81.7009C777.502 81.7009 777.664 81.7487 777.763 81.8176C777.861 81.8884 777.908 81.9945 777.908 82.1448C777.908 82.3518 777.77 82.4774 777.599 82.5287V82.541C777.737 82.5658 777.835 82.6896 777.872 82.9231C777.908 83.1672 777.945 83.2627 777.97 83.3122H777.697C777.661 83.2627 777.619 83.1176 777.588 82.9125C777.551 82.7091 777.442 82.6348 777.238 82.6348H777.056V83.314L777.038 83.3157ZM777.038 82.4402H777.225C777.438 82.4402 777.619 82.3642 777.619 82.1696C777.619 82.0316 777.517 81.8937 777.225 81.8937C777.141 81.8937 777.08 81.899 777.038 81.9061V82.4402ZM677.114 79.3626C677.114 80.1975 677.522 80.6308 678.418 80.6308C679.383 80.6308 679.952 80.3266 680.655 80.0118V78.3403H678.549C677.551 78.3403 677.114 78.5172 677.114 79.3609V79.3626ZM722.182 72.4009C721.217 72.4009 720.524 72.7016 719.821 73.02V80.0595C720.495 80.1214 720.881 80.1214 721.523 80.1214C723.836 80.1214 724.149 79.0956 724.149 77.6629V74.2952C724.149 73.2411 723.785 72.3903 722.182 72.3903V72.4009ZM737.11 72.4009C735.503 72.4009 734.947 73.2499 734.947 74.2935V78.1493C734.947 79.2105 735.503 80.0595 737.11 80.0595C738.713 80.0595 739.27 79.2105 739.27 78.1493V74.2935C739.27 73.2393 738.705 72.3886 737.102 72.3886L737.11 72.4009ZM698.753 72.8785C696.305 72.4717 695.602 72.3833 694.425 72.3833C692.309 72.3833 691.669 72.8307 691.669 74.5765V77.8663C691.669 79.6085 692.307 80.0595 694.425 80.0595C695.604 80.0595 696.305 79.9711 698.753 79.5643V83.2857C696.609 83.7544 695.212 83.8764 694.032 83.8764C688.964 83.8764 686.95 81.2941 686.95 77.5621V74.8913C686.95 71.1522 688.964 68.5646 694.032 68.5646C695.212 68.5646 696.609 68.6884 698.753 69.1571V72.8785ZM713.526 77.5656H704.87V77.8663C704.87 79.6085 705.508 80.0595 707.624 80.0595C709.528 80.0595 710.685 79.9711 713.129 79.5643V83.2857C710.774 83.7544 709.546 83.8764 707.233 83.8764C702.169 83.8764 700.165 81.2941 700.165 77.5621V74.5022C700.165 71.2354 701.659 68.5593 706.85 68.5593C712.051 68.5593 713.535 71.2035 713.535 74.5022V77.5621L713.526 77.5656ZM752.223 72.4009C750.62 72.4009 750.064 73.2499 750.064 74.2988V78.1599C750.064 79.2211 750.62 80.0701 752.223 80.0701C753.826 80.0701 754.39 79.2211 754.39 78.1599V74.297C754.39 73.2411 753.826 72.3903 752.223 72.3903V72.4009ZM774.622 83.6854H769.509L765.181 76.6813V83.6854H760.463V62.6783L765.181 61.9177V75.4396L769.507 68.7892H774.608L769.881 76.041L774.604 83.6819L774.622 83.6854ZM706.837 72.0118C705.234 72.0118 704.87 72.8608 704.87 73.922V74.511H708.805V73.9167C708.805 72.8732 708.44 72.0171 706.837 72.0171V72.0118ZM728.871 77.6364C728.871 81.2446 727.796 83.88 721.348 83.88C719.024 83.88 717.657 83.6783 715.089 83.2963V62.6747L719.807 61.9142V69.1253C720.827 68.7574 722.147 68.5717 723.35 68.5717C728.067 68.5717 728.851 70.6234 728.851 73.9185V77.6505L728.871 77.6364Z" fill="#D6DAE5"/>
<path fill-rule="evenodd" clip-rule="evenodd" d="M936.261 76.4009C934.567 75.9764 934.567 75.9587 934.567 75.0567C934.567 74.4491 934.629 74.159 936.025 74.159C936.983 74.159 938.393 74.3182 939.3 74.4721C939.424 74.4898 939.551 74.4633 939.653 74.3837C939.755 74.3129 939.821 74.198 939.835 74.0741L940.094 72.0534C940.112 71.8234 939.966 71.6112 939.73 71.5581C938.673 71.3229 937.216 71.169 936.014 71.169C931.806 71.169 930.95 72.7078 930.95 75.0195C930.95 77.5603 931.433 78.4155 934.651 79.176C936.771 79.6713 936.771 80.0383 936.771 80.6485C936.771 81.4497 936.699 81.7274 935.314 81.7274C934.196 81.7274 932.902 81.5594 931.766 81.264C931.638 81.2339 931.511 81.2534 931.402 81.3171C931.292 81.386 931.214 81.4939 931.19 81.6178L930.842 83.5465C930.8 83.7676 930.933 83.9843 931.152 84.0533C932.394 84.4424 934.176 84.7077 935.484 84.7077C939.553 84.7077 940.384 83.0451 940.384 80.5689C940.384 77.8274 939.884 77.3144 936.256 76.3823L936.261 76.4V76.4009ZM925.709 76.4009C924.015 75.9764 924.015 75.9587 924.015 75.0567C924.015 74.4491 924.077 74.159 925.472 74.159C926.429 74.159 927.84 74.3182 928.748 74.4721C928.871 74.4898 928.999 74.4633 929.101 74.3837C929.203 74.3129 929.269 74.198 929.283 74.0741L929.542 72.0534C929.571 71.8234 929.418 71.6112 929.187 71.5581C928.148 71.3229 926.691 71.169 925.489 71.169C921.292 71.169 920.425 72.7078 920.425 75.0195C920.425 77.5603 920.917 78.4155 924.134 79.176C926.254 79.6713 926.254 80.0383 926.254 80.6485C926.254 81.4497 926.181 81.7274 924.797 81.7274C923.676 81.7274 922.383 81.5594 921.245 81.264C921.117 81.2339 920.99 81.2534 920.88 81.3171C920.771 81.386 920.693 81.4939 920.669 81.6178L920.305 83.5368C920.268 83.7579 920.396 83.9755 920.62 84.0444C921.858 84.4336 923.64 84.6989 924.95 84.6989C929.012 84.6989 929.85 83.0363 929.85 80.5601C929.85 77.8185 929.343 77.3056 925.715 76.3735L925.709 76.3912V76.4009ZM888.359 67.1098C888.298 66.9223 888.122 66.795 887.918 66.795H883.603C883.403 66.795 883.221 66.9214 883.161 67.1071L877.717 83.8561C877.675 83.9887 877.699 84.1391 877.786 84.254C877.874 84.369 878.012 84.4371 878.16 84.4371H881.129C881.335 84.4371 881.515 84.3044 881.573 84.1187L885.323 71.7907C885.323 71.7907 885.423 71.4812 885.76 71.4812C886.106 71.4812 886.197 71.7996 886.197 71.7996L887.937 77.6452H885.605C885.405 77.6452 885.223 77.7805 885.168 77.9724L884.494 80.2894C884.458 80.4221 884.494 80.5724 884.567 80.6786C884.658 80.7909 884.804 80.8554 884.95 80.8554H888.93L889.977 84.1214C890.035 84.3071 890.214 84.4344 890.414 84.4344H893.383C893.529 84.4344 893.671 84.3637 893.759 84.2487C893.85 84.132 893.875 83.9834 893.831 83.8472L888.382 67.0797L888.364 67.108L888.359 67.1098ZM945.1 71.4379H942.367C942.112 71.4379 941.906 71.6386 941.906 71.8862V84.0197C941.906 84.2673 942.114 84.4725 942.369 84.4725H945.101C945.356 84.4725 945.563 84.2717 945.563 84.0214V71.8907C945.563 71.643 945.363 71.4458 945.108 71.4458L945.099 71.4387L945.1 71.4379ZM906.355 66.4677H903.623C903.368 66.4677 903.162 66.6685 903.162 66.9161V84.0197C903.162 84.2673 903.37 84.4725 903.625 84.4725H906.357C906.612 84.4725 906.818 84.2717 906.818 84.0214V66.9205C906.818 66.6729 906.618 66.4757 906.363 66.4757L906.355 66.4686V66.4677ZM967.778 71.177C966.334 71.177 964.362 71.6616 962.696 72.4222L962.495 71.7677C962.441 71.5732 962.258 71.4449 962.053 71.4449H960.032C959.777 71.4449 959.567 71.6457 959.567 71.8933V84.0268C959.567 84.2744 959.767 84.4778 960.022 84.4778H962.755C963.01 84.4778 963.219 84.2779 963.219 84.0268V75.6253C964.203 75.1389 965.587 74.6348 966.41 74.6348C967.025 74.6348 967.253 74.8595 967.253 75.4573V84.0179C967.253 84.2691 967.463 84.4689 967.718 84.4689H970.45C970.705 84.4689 970.911 84.2691 970.911 84.0179V75.1097C970.911 72.5053 969.854 71.1832 967.776 71.1832H967.774L967.778 71.177ZM864.506 78.3907C864.433 78.32 864.329 78.2448 864.15 78.2448C863.923 78.2448 863.79 78.3969 863.739 78.4712C862.464 80.3637 861.808 82.1501 861.717 83.9454C861.714 84.078 861.765 84.2107 861.858 84.308C861.949 84.4141 862.086 84.4672 862.222 84.4672H865.25C865.514 84.4672 865.732 84.2726 865.751 84.025C865.823 83.1583 866.097 82.2916 866.607 81.3896C866.78 81.0712 866.643 80.7794 866.543 80.6529C866.042 80.0162 865.429 79.3441 864.518 78.419L864.515 78.4013L864.506 78.3907ZM915.214 79.6819V81.2445C914.768 81.4922 913.948 81.8282 912.956 81.8282C912.109 81.8282 911.845 81.5806 911.845 80.7493C911.845 79.9534 912.009 79.7022 913.01 79.7022H915.214V79.6828V79.6819ZM954.031 79.6819V81.2445C953.576 81.4922 952.756 81.8282 951.773 81.8282C950.926 81.8282 950.662 81.5806 950.662 80.7493C950.662 79.9534 950.826 79.7022 951.827 79.7022H954.031V79.6828V79.6819ZM901.307 81.8795C901.289 81.7522 901.216 81.6407 901.107 81.57C900.997 81.4992 900.868 81.478 900.74 81.5081C900.249 81.6248 899.793 81.6885 899.429 81.6885C898.755 81.6885 898.445 81.4055 898.445 80.7688V74.3394H901.096C901.351 74.3394 901.558 74.136 901.558 73.8884V71.8809C901.558 71.6333 901.349 71.4299 901.094 71.4299H898.453V68.3444C898.453 68.2117 898.391 68.0905 898.289 68.0039C898.189 67.9181 898.052 67.8801 897.924 67.8978L895.192 68.2692C894.963 68.2984 894.791 68.4876 894.791 68.7114V71.4352H893.3C893.045 71.4352 892.838 71.636 892.838 71.8836V73.8999C892.838 74.1475 893.056 74.3527 893.311 74.3527H894.798V81.1888C894.798 83.5386 896.067 84.7263 898.574 84.7263C899.284 84.7263 900.497 84.5671 901.288 84.3018C901.497 84.231 901.627 84.025 901.592 83.8065L901.296 81.8875L901.305 81.8742L901.307 81.8795ZM913.383 71.1832C911.999 71.1832 910.315 71.3954 909.093 71.7226C908.856 71.7845 908.711 72.0012 908.747 72.2267L909.062 74.1546C909.08 74.2722 909.153 74.3784 909.253 74.4491C909.355 74.5199 909.483 74.5375 909.607 74.5199C910.742 74.3076 911.915 74.1838 912.907 74.1838C914.875 74.1838 915.192 74.5906 915.192 75.8818V77.0138H912.277C909.483 77.0138 908.288 78.1281 908.288 80.7635C908.288 83.275 909.6 84.7077 911.876 84.7077C913.201 84.7077 914.523 84.354 915.634 83.6995L915.753 84.1117C915.807 84.3062 915.989 84.4389 916.199 84.4389H918.418C918.673 84.4389 918.878 84.2355 918.878 83.9878V75.9225C918.878 72.4558 917.394 71.1646 913.396 71.1646L913.379 71.1734L913.383 71.1832ZM952.193 71.1832C950.809 71.1832 949.133 71.3954 947.913 71.7226C947.685 71.7845 947.539 72.0012 947.58 72.2267L947.899 74.1546C947.917 74.2722 947.99 74.3784 948.09 74.4491C948.194 74.5199 948.322 74.5375 948.446 74.5199C949.575 74.3076 950.741 74.1838 951.743 74.1838C953.71 74.1838 954.02 74.5906 954.02 75.8818V77.0138H951.105C948.3 77.0138 947.105 78.1281 947.105 80.7635C947.105 83.275 948.414 84.7077 950.693 84.7077C952.017 84.7077 953.335 84.354 954.446 83.6995L954.564 84.1117C954.619 84.3062 954.801 84.4389 955.01 84.4389H957.215C957.47 84.4389 957.679 84.2355 957.679 83.9878V75.9225C957.679 72.4558 956.194 71.1646 952.196 71.1646L952.201 71.1734L952.193 71.1832ZM876.788 66.5491C876.697 66.4828 876.592 66.4492 876.485 66.4492C876.412 66.4492 876.357 66.4598 876.303 66.481C875.21 66.8825 874.117 67.1885 873.115 67.4131C872.915 67.4662 872.736 67.6077 872.678 67.7846C871.949 69.7302 870.073 71.5873 868.124 73.5152C868.051 73.586 867.942 73.6921 867.76 73.6921C867.578 73.6921 867.468 73.6037 867.395 73.5276C865.428 71.5909 863.57 69.7514 862.842 67.8058C862.769 67.6289 862.605 67.4874 862.404 67.4344C861.403 67.2044 860.291 66.8949 859.217 66.4969C859.162 66.4792 859.093 66.4704 859.035 66.4704C858.925 66.4704 858.82 66.5058 858.73 66.5703C858.592 66.6676 858.521 66.8356 858.537 66.9948C858.701 68.6097 859.366 70.1874 860.55 71.8411C861.67 73.3976 863.118 74.8391 864.53 76.2311C867.117 78.7958 869.567 81.2189 869.783 84.0312C869.802 84.2823 870.02 84.4787 870.279 84.4787H873.321C873.458 84.4787 873.59 84.4256 873.685 84.3283C873.78 84.231 873.831 84.1019 873.822 83.9693C873.725 82.0918 872.997 80.2107 871.594 78.2183C871.303 77.8026 870.993 77.3958 870.662 76.9978C870.529 76.8387 870.586 76.6353 870.688 76.5362L870.998 76.232C872.406 74.8435 873.857 73.402 874.978 71.8455C876.162 70.1962 876.817 68.6265 876.986 67.0125C877.004 66.8489 876.928 66.6765 876.793 66.5765L876.802 66.5633L876.788 66.5491ZM867.772 67.9995C868.725 67.9995 869.279 67.9402 869.472 67.9402C869.691 67.9402 869.927 68.1171 869.927 68.3824C869.927 68.4531 869.909 68.5062 869.891 68.5593C869.763 68.8847 869.181 70.0662 868.106 71.0797C867.978 71.1929 867.851 71.2141 867.76 71.2141C867.669 71.2141 867.523 71.1929 867.401 71.0797C866.326 70.0662 865.751 68.8865 865.625 68.5557C865.607 68.5027 865.588 68.4496 865.588 68.37C865.588 68.1135 865.813 67.919 866.047 67.919C866.242 67.919 866.794 67.972 867.749 67.972H867.752L867.771 67.9897L867.772 67.9995ZM945.098 66.4722H942.373C942.118 66.4722 941.91 66.6667 941.91 66.9143V69.2491C941.91 69.4967 942.118 69.6983 942.373 69.6983H945.105C945.36 69.6983 945.567 69.5038 945.567 69.2561V66.9028C945.567 66.6552 945.36 66.4562 945.105 66.4562L945.098 66.4775V66.4722ZM881.078 60.9025C880.957 60.7433 880.768 60.6548 880.568 60.6548C880.465 60.6548 880.363 60.6761 880.276 60.7256C876.542 62.7065 872.219 63.7554 867.767 63.7572C863.317 63.7572 858.993 62.7065 855.262 60.7238C855.171 60.6707 855.071 60.6531 854.971 60.6531C854.77 60.6531 854.579 60.7415 854.461 60.9007C854.284 61.1129 854.279 61.502 854.579 61.732C856.446 63.0762 858.506 64.1374 860.699 64.8626C862.976 65.6055 865.352 65.9946 867.767 65.9946C870.184 65.9946 872.561 65.6055 874.835 64.8626C877.03 64.1374 879.09 63.0762 880.96 61.732C881.261 61.502 881.252 61.1129 881.079 60.883V60.9025H881.078Z" fill="#5982E7"/>
<path fill-rule="evenodd" clip-rule="evenodd" d="M1152.84 75.6368C1152.84 73.3331 1151.87 70.6667 1148.86 66.9497L1141.58 58H1131.45L1137.22 64.279C1138.19 65.3261 1139.42 66.267 1139.42 66.267C1138.02 65.4826 1136.25 65.1686 1134.84 65.1686C1131.5 65.1686 1128.11 65.8496 1125.09 67.4715C1121.86 69.1978 1119.7 72.0764 1119.7 75.8977C1119.7 78.8276 1121.05 81.0783 1122.77 82.8046C1126.65 86.5746 1133.71 86.9399 1136.3 86.9399C1140.13 86.9399 1146.11 86.1015 1149.5 83.1194C1151.5 81.3401 1152.85 78.8807 1152.85 75.6377L1152.84 75.6368ZM1164 65.7452H1155.21V86.2598H1164V65.7452ZM1091.78 86.2598L1072.37 58H1061.49L1064.5 61.4534L1047.42 86.2598H1057.23L1060.16 81.6027H1078.66L1081.65 86.258H1091.78V86.2598ZM1117.49 77.6771V65.7452H1108.97V74.9037C1108.97 77.5214 1108.86 78.2519 1108.7 78.932C1108.11 80.8157 1106.06 81.6523 1103.96 81.6523C1101.05 81.6523 1099.7 80.553 1099.16 78.8258C1099 78.251 1098.95 77.6249 1098.89 76.9952C1098.84 76.316 1098.89 75.5829 1098.89 74.7976V65.7452H1090.27V77.7283C1090.27 80.3991 1091.18 82.3863 1092.69 83.7482C1095.28 86.2067 1099.65 86.9407 1103.69 86.9407C1108.6 86.9407 1112.37 86.2598 1115.06 83.6951C1116.47 82.3863 1117.49 80.66 1117.49 77.6771H1117.49ZM1144.44 75.8977C1144.44 78.0423 1142.98 79.6651 1141.15 80.5548C1139.64 81.3401 1137.86 81.5488 1136.3 81.5488C1134.73 81.5488 1132.9 81.2366 1131.39 80.5026C1129.56 79.6138 1128.16 77.8866 1128.16 76.0012C1128.16 73.7523 1129.94 71.9729 1132.04 71.0824C1133.33 70.5058 1134.9 70.2971 1136.13 70.2971C1137.32 70.2971 1139.05 70.4536 1140.39 70.978C1142.82 71.9729 1144.44 73.8557 1144.44 75.8977ZM1075.24 76.0879H1063.51L1069.36 66.726L1075.24 76.0879H1075.24Z" fill="#D6DAE5"/>
<path fill-rule="evenodd" clip-rule="evenodd" d="M484.213 66.5199C482.153 66.3722 480.407 67.6369 479.433 67.6369C478.444 67.6369 476.919 66.5518 475.303 66.5801C473.18 66.6119 471.223 67.7793 470.129 69.6258C467.924 73.3428 469.567 78.8488 471.714 81.8627C472.764 83.3378 474.017 84.9969 475.662 84.9368C477.247 84.8757 477.845 83.9401 479.76 83.9401C481.673 83.9401 482.214 84.9368 483.888 84.9049C485.592 84.8757 486.674 83.4033 487.715 81.9202C488.922 80.2107 489.419 78.5561 489.448 78.4659C489.409 78.4535 486.124 77.2269 486.092 73.5524C486.062 70.481 488.674 69.0032 488.794 68.9316C487.31 66.8118 485.02 66.5783 484.213 66.5199ZM566.509 78.5172V78.8426C566.509 82.0502 564.093 84.92 559.244 84.92C554.408 84.92 551.534 81.9724 551.534 76.821V74.6693C551.534 69.571 554.422 66.5314 559.256 66.5314C563.796 66.5314 566.509 69.3101 566.509 72.7786V72.9607H562.868C562.868 71.2008 561.714 69.6355 559.283 69.6355C556.691 69.6355 555.387 71.3176 555.387 74.6693V76.821C555.387 80.2116 556.678 81.7902 559.309 81.7902C561.929 81.7902 562.868 80.3549 562.868 78.5172H566.509ZM500.309 79.5342H500.362L503.627 66.8188H507.481L510.758 79.5342H510.812L513.848 66.8188H517.904L512.814 84.621H508.958L505.587 72.4522H505.52L502.148 84.621H498.321L493.217 66.8188H497.274L500.309 79.5342ZM574.352 73.9654H581.846V66.8188H585.661V84.621H581.846V77.0306H574.352V84.621H570.552V66.8188H574.352V73.9654ZM549.076 66.8188V69.8964H543.61V84.621H539.822V69.8964H534.37V66.8188H549.076ZM528.54 66.8188L534.436 84.6202H530.366L529.059 80.1338H523.26L521.932 84.6202H518.131L524.041 66.8188H528.54ZM528.264 77.3958L526.204 70.3271H526.164L524.072 77.3958H528.264ZM482.858 64.6247C481.979 65.6046 480.593 66.3501 479.233 66.2484C479.04 64.8547 479.751 63.4008 480.56 62.4916C481.462 61.4676 482.984 60.7008 484.243 60.6531C484.405 62.0733 483.816 63.5042 482.941 64.5283L482.9 64.577L482.858 64.6247Z" fill="#D6DAE5"/>
<path fill-rule="evenodd" clip-rule="evenodd" d="M290.932 81.2004C290.762 81.2004 290.677 81.2835 290.677 81.2835C290.677 81.2835 288.543 82.9461 284.702 82.9461C280.864 82.9452 278.732 81.2826 278.732 81.2826C278.732 81.2826 278.562 81.2004 278.477 81.2004C278.306 81.2004 278.135 81.2835 278.135 81.532V81.6142C278.476 83.3547 278.732 84.5972 278.732 84.7626C278.987 86.006 281.548 87 284.62 87C287.692 87 290.252 86.006 290.508 84.7626C290.508 84.5972 290.763 83.3547 291.1 81.6142V81.532C291.182 81.3657 291.1 81.2004 290.927 81.2004H290.932ZM308.253 77.1411C309.362 76.561 309.79 75.7323 309.79 74.488V72.7485C309.79 70.2634 308.253 69.0218 305.011 69.0218H298.526C298.271 69.0218 298.1 69.1881 298.1 69.4375V85.6743C298.1 85.9237 298.27 86.09 298.526 86.09H305.523C308.595 86.09 310.386 84.5981 310.386 82.0308V80.2886C310.386 78.7984 309.618 77.639 308.253 77.1402V77.1411ZM314.909 73.4949H312.268C312.013 73.4949 311.84 73.6612 311.84 73.9106V85.6743C311.84 85.922 312.013 86.09 312.268 86.09H314.918C315.173 86.09 315.346 85.922 315.346 85.6743V73.9097C315.346 73.6621 315.173 73.494 314.918 73.494L314.909 73.4949ZM378.481 73.2473C374.901 73.2473 373.107 74.9868 373.107 78.2174V81.4489C373.107 84.7634 374.901 86.3376 378.654 86.3376C380.193 86.3376 381.814 86.09 383.18 85.5912C383.351 85.509 383.521 85.3436 383.435 85.0942L383.009 83.2724C383.009 83.1884 382.924 83.023 382.839 83.023C382.753 82.9399 382.584 82.9399 382.497 82.9399C381.304 83.2715 380.109 83.4378 379 83.4378C377.037 83.4378 376.696 82.8576 376.696 81.532V81.1163H383.266C383.521 81.1163 383.694 80.9518 383.694 80.7033V78.3837C383.608 74.9037 381.987 73.2455 378.489 73.2455L378.481 73.2473ZM331.64 83.3555C330.957 83.3555 330.447 83.3555 329.937 83.2715V76.8864C330.705 76.5504 331.729 76.2232 332.496 76.2232C333.521 76.2232 333.948 76.6388 333.948 77.5497V81.2729C333.948 82.6817 333.606 83.3449 331.643 83.3449L331.64 83.3555ZM392.306 83.6032C392.306 83.52 392.224 83.3555 392.139 83.2715C392.054 83.1831 391.884 83.1831 391.798 83.1831C391.286 83.2627 390.86 83.3511 390.518 83.3511C389.835 83.3511 389.58 83.1035 389.58 82.4402V76.2232H392.139C392.394 76.2232 392.564 76.0551 392.564 75.8075V73.9061C392.564 73.6585 392.394 73.4905 392.139 73.4905H389.579V70.5102C389.579 70.3422 389.492 70.2581 389.406 70.1759C389.321 70.0928 389.151 70.0928 389.065 70.0928L386.421 70.4288C386.166 70.4288 385.993 70.6764 385.993 70.8418V73.4931H384.545C384.29 73.4931 384.116 73.6594 384.116 73.9088V75.8128C384.116 76.0604 384.29 76.2285 384.545 76.2285H385.993V82.8541C385.993 85.0915 387.189 86.2501 389.663 86.2501C390.346 86.2501 391.539 86.0865 392.308 85.8344C392.479 85.7548 392.65 85.5868 392.563 85.3392L392.308 83.6005L392.306 83.6032ZM324.816 83.6032C324.816 83.52 324.732 83.3555 324.646 83.2715C324.561 83.1831 324.391 83.1831 324.305 83.1831C323.877 83.2627 323.367 83.3511 323.026 83.3511C322.343 83.3511 322.088 83.1035 322.088 82.4402V76.2232H324.647C324.902 76.2232 325.075 76.0551 325.075 75.8075V73.9061C325.075 73.6585 324.902 73.4905 324.647 73.4905H322.085V70.5102C322.085 70.3422 321.999 70.2581 321.914 70.1759C321.828 70.0928 321.659 70.0928 321.572 70.0928L318.929 70.4288C318.674 70.4288 318.504 70.6764 318.504 70.8418V73.4931H317.048C316.793 73.4931 316.62 73.6594 316.62 73.9088V75.8128C316.62 76.0604 316.792 76.2285 317.048 76.2285H318.498V82.8541C318.498 85.0915 319.691 86.2501 322.166 86.2501C322.849 86.2501 324.042 86.0865 324.807 85.8344C324.98 85.7548 325.149 85.5868 325.062 85.3392L324.807 83.6005L324.816 83.6032ZM360.227 83.4378C360.227 83.3547 360.141 83.1884 360.057 83.1062C359.972 83.023 359.802 83.023 359.716 83.023C358.948 83.1884 358.181 83.2706 357.412 83.2706C355.706 83.2706 355.279 82.8576 355.279 81.4489V78.0529C355.279 76.6432 355.791 76.2294 357.412 76.2294C357.84 76.2294 358.778 76.3125 359.716 76.477C359.801 76.477 359.971 76.477 360.057 76.3947C360.14 76.3125 360.226 76.2294 360.226 76.0631L360.569 74.075C360.569 73.8274 360.483 73.6612 360.227 73.578C359.204 73.2464 358.009 73.1624 357.327 73.1624C353.316 73.1624 351.694 74.5721 351.694 78.0529V81.3657C351.694 84.8457 353.315 86.2545 357.324 86.2545C358.262 86.2545 359.372 86.0891 360.225 85.8388C360.48 85.7575 360.567 85.5912 360.567 85.3436L360.224 83.4378H360.227ZM301.692 83.1062H304.85C306.217 83.1062 306.727 82.7745 306.727 81.6974V80.4504C306.727 79.3715 306.302 78.9558 305.105 78.9558H303.994C303.739 78.9558 303.566 78.7878 303.566 78.5402V76.4805C303.566 76.2311 303.739 76.0649 303.994 76.0649H304.592C305.701 76.0649 306.127 75.651 306.127 74.657V73.1642C306.127 72.584 305.962 72.0039 304.597 72.0039H301.684V83.1062H301.692ZM349.644 73.4949H347.003C346.748 73.4949 346.575 73.6612 346.575 73.9106V82.029C345.636 82.526 344.27 83.023 343.505 83.023C342.907 83.023 342.649 82.7754 342.649 82.1944V73.9159C342.649 73.6682 342.476 73.5002 342.221 73.5002H339.572C339.317 73.5002 339.145 73.6682 339.145 73.9159V82.5322C339.145 85.0173 340.167 86.3438 342.215 86.3438C343.581 86.3438 345.543 85.8459 347.164 85.1004L347.334 85.7637C347.423 85.9299 347.594 86.0962 347.762 86.0962H349.727C349.982 86.0962 350.153 85.9282 350.153 85.6805V73.9097C350.067 73.7416 349.898 73.494 349.641 73.494L349.644 73.4949ZM284.706 67.5308C279.925 67.5308 276 68.7715 276 70.3457C276 70.7613 277.024 76.6424 277.451 78.9629C277.621 80.0392 280.438 81.5311 284.703 81.5311C288.969 81.5311 291.7 80.0454 291.956 78.9665C292.375 76.6494 293.404 70.7684 293.404 70.3528C293.313 68.7786 289.478 67.537 284.697 67.537L284.706 67.5308ZM284.706 79.6262C283.171 79.6262 281.976 78.4659 281.976 76.9749C281.976 75.4803 283.17 74.3218 284.705 74.3218C286.241 74.3218 287.436 75.4803 287.436 76.9749C287.436 78.381 286.241 79.6191 284.705 79.6191L284.706 79.6262ZM372.593 85.3427L369.094 79.7093L372.51 74.1644C372.594 73.9963 372.594 73.8354 372.51 73.7487C372.423 73.5869 372.253 73.5011 372.082 73.5011H369.181C369.01 73.5011 368.838 73.5869 368.753 73.7487L365.51 79.222V69.1049C365.51 68.8555 365.337 68.6893 365.082 68.6893H362.437C362.182 68.6893 362.008 68.8555 362.008 69.1049V85.5894C362.008 85.8371 362.182 86.0051 362.437 86.0051H365.081C365.336 86.0051 365.509 85.8371 365.509 85.5894V80.2037L368.919 85.8371C369.005 86.0051 369.174 86.0873 369.261 86.0873H372.161C372.416 86.0873 372.589 85.9211 372.589 85.6717C372.673 85.5072 372.673 85.4241 372.589 85.3409L372.593 85.3427ZM376.604 78.3032V77.8875C376.604 76.6494 377.2 76.1542 378.48 76.1542C379.931 76.1542 380.187 76.8175 380.187 77.8964V78.312H376.604V78.3032ZM284.707 75.5696C285.459 75.5696 286.073 76.1692 286.073 76.8962C286.073 77.6302 285.459 78.2227 284.707 78.2227C283.955 78.2227 283.341 77.6302 283.341 76.8962C283.341 76.1692 283.953 75.5696 284.707 75.5696ZM333.428 73.2526C332.148 73.2526 330.783 73.5869 329.93 73.9159V69.1934C329.93 68.9457 329.759 68.7777 329.502 68.7777H326.857C326.602 68.7777 326.429 68.9457 326.429 69.1934V85.5983C326.429 85.8459 326.602 86.0139 326.771 86.0139C328.392 86.2616 330.355 86.4296 331.464 86.4296C336.413 86.4296 337.437 84.3584 337.437 81.2914V77.7275C337.437 74.7472 336.071 73.2526 333.427 73.2526H333.428ZM312.267 71.758C312.012 71.758 311.839 71.5918 311.839 71.3424V69.1049C311.839 68.8555 312.012 68.6893 312.267 68.6893H314.913C315.169 68.6893 315.341 68.9387 315.341 69.1049V71.3406C315.341 71.5882 315.169 71.7563 314.913 71.7563H312.267V71.758ZM284.705 71.1743C281.632 71.1743 279.159 70.6791 279.159 70.0158C279.159 69.3526 281.632 68.8555 284.705 68.8555C287.776 68.8555 290.252 69.3526 290.252 70.0141C290.252 70.6773 287.776 71.1752 284.705 71.1752V71.1743ZM318.92 64.6301C318.494 64.6301 317.811 64.4638 317.469 64.2144C317.387 64.2144 317.387 64.1331 317.387 64.0499L317.557 63.3866L317.639 63.3044H317.81C318.238 63.3928 318.662 63.4724 319.088 63.4724C319.608 63.4724 319.608 63.3132 319.608 63.0568C319.608 62.8976 319.608 62.7296 318.838 62.5615C317.645 62.3139 317.472 61.9867 317.472 61.0758C317.472 60.248 317.729 59.6697 319.266 59.6697C319.691 59.6697 320.289 59.7493 320.632 59.8342C320.632 59.8342 320.714 59.9173 320.714 59.9995L320.63 60.7424L320.545 60.8255H320.374C320.222 60.8255 320.04 60.8105 319.854 60.7928L319.693 60.7769C319.507 60.7592 319.325 60.7415 319.176 60.7415C318.664 60.7415 318.664 60.8238 318.664 61.0723C318.664 61.4083 318.664 61.4083 319.262 61.5728C320.54 61.9053 320.71 62.1538 320.71 63.147C320.71 64.0526 320.373 64.6309 318.952 64.6398H318.919L318.92 64.6301ZM315.163 64.6301C314.653 64.6301 314.055 64.4638 313.457 64.2144C313.372 64.2144 313.372 64.1331 313.372 64.0499L313.543 63.3866L313.634 63.3044H313.807C314.232 63.3928 314.659 63.4724 315.086 63.4724C315.596 63.4724 315.596 63.3132 315.596 63.0568C315.596 62.8976 315.596 62.7296 314.829 62.5615C313.636 62.3139 313.463 61.9867 313.463 61.0758C313.463 60.248 313.72 59.6697 315.257 59.6697C315.683 59.6697 316.281 59.7493 316.623 59.8342C316.707 59.8342 316.792 59.9173 316.792 59.9995L316.709 60.7459L316.625 60.8282H316.534C316.385 60.8282 316.203 60.8105 316.017 60.7928L315.857 60.7778C315.671 60.7601 315.489 60.7459 315.338 60.7459C314.819 60.7459 314.819 60.8255 314.819 61.0732C314.819 61.4066 314.819 61.4066 315.418 61.5719C316.698 61.9053 316.869 62.1538 316.954 63.1461C316.954 64.0526 316.617 64.6318 315.196 64.6407H315.163V64.6301ZM330.61 59.7413C330.097 59.7413 329.414 59.9076 328.732 60.157L328.646 59.9076C328.646 59.8244 328.561 59.8244 328.476 59.8244H327.708C327.622 59.8244 327.537 59.9076 327.537 59.9898V64.3824C327.537 64.4638 327.622 64.5469 327.708 64.5469H328.732C328.817 64.5469 328.902 64.4638 328.902 64.3816V61.3137C329.244 61.1483 329.755 60.983 330.097 60.983C330.352 60.983 330.438 61.0652 330.438 61.3137V64.3824C330.438 64.4638 330.523 64.5469 330.609 64.5469H331.629C331.711 64.5469 331.802 64.4638 331.802 64.3816V61.1457C331.711 60.1517 331.374 59.7369 330.609 59.7369L330.61 59.7413ZM322.417 59.8244H321.393C321.308 59.8244 321.223 59.9076 321.223 59.9898V64.3824C321.223 64.4638 321.308 64.5469 321.394 64.5469H322.423C322.512 64.5469 322.596 64.4638 322.596 64.3816V59.9872C322.596 59.9049 322.512 59.8218 322.423 59.8218L322.417 59.8244ZM308.423 58.0027H307.4C307.315 58.0027 307.229 58.0849 307.229 58.1671V64.3824C307.229 64.4638 307.311 64.5469 307.393 64.5469H308.422C308.504 64.5469 308.59 64.4638 308.59 64.3816V58.1654C308.59 58.0831 308.504 58 308.42 58L308.423 58.0027ZM301.939 58.2503C301.939 58.1671 301.854 58.1671 301.768 58.1671H300.233C300.147 58.1671 300.062 58.2503 300.062 58.2503L298.094 64.2993V64.4638C298.094 64.5469 298.176 64.5469 298.261 64.5469H299.372C299.456 64.5469 299.541 64.4638 299.541 64.4638L300.907 59.9889C300.907 59.9889 300.907 59.9076 301.077 59.9076C301.161 59.9076 301.247 59.9898 301.247 59.9898L301.845 62.0619H300.991C300.903 62.0619 300.818 62.1441 300.818 62.1441L300.563 62.9666V63.1293C300.563 63.1293 300.647 63.2124 300.733 63.2124H302.181L302.523 64.3727C302.523 64.4541 302.609 64.4541 302.695 64.4541H303.806C303.891 64.4541 303.891 64.4541 303.979 64.3701V64.202L301.939 58.2494V58.2503ZM310.728 63.5529C311.156 63.5529 311.411 63.4698 311.581 63.3875V62.7243H310.728C310.386 62.7243 310.301 62.8896 310.301 63.1381C310.301 63.4671 310.385 63.5511 310.72 63.5538H310.728V63.5529ZM306.632 63.5529C306.632 63.4698 306.632 63.4698 306.547 63.4698H306.376C306.206 63.5529 306.034 63.5529 305.864 63.5529C305.609 63.5529 305.523 63.4698 305.523 63.2213V60.8185H306.461C306.547 60.8185 306.632 60.7362 306.632 60.6531V59.9898C306.632 59.9076 306.547 59.8244 306.462 59.8244H305.523V58.6642C305.523 58.5819 305.523 58.5819 305.438 58.5819C305.438 58.5819 305.352 58.5023 305.267 58.5819L304.243 58.7499C304.157 58.7499 304.073 58.8384 304.073 58.918V59.9085H303.561C303.479 59.9085 303.397 59.9951 303.397 60.0765V60.8238C303.397 60.9078 303.484 60.9918 303.57 60.9918H304.083V63.4769C304.083 64.3046 304.509 64.7194 305.449 64.7194C305.704 64.7194 306.13 64.6354 306.387 64.5514C306.728 64.386 306.728 64.386 306.728 64.3037L306.642 63.5573L306.632 63.5529ZM324.806 63.5529C325.234 63.5529 325.489 63.4698 325.66 63.3875V62.7243H324.806C324.466 62.7243 324.38 62.8896 324.38 63.1381C324.38 63.4671 324.464 63.5511 324.799 63.5538H324.806V63.5529ZM310.983 59.7413C310.473 59.7413 309.874 59.8244 309.448 59.9076C309.362 59.9076 309.278 59.9898 309.362 60.0729L309.453 60.7362C309.453 60.8185 309.453 60.8185 309.543 60.8185H309.627C310.055 60.7362 310.481 60.7362 310.821 60.7362C311.504 60.7362 311.675 60.9016 311.675 61.3155V61.7311H310.646C309.621 61.7311 309.195 62.1441 309.195 63.0559C309.195 63.9668 309.707 64.4638 310.474 64.4638C310.984 64.4638 311.413 64.2984 311.839 64.1331V64.2984C311.839 64.3816 311.924 64.3816 312.009 64.3816H312.778C312.86 64.3816 312.951 64.2931 312.951 64.2135V61.3933C312.951 60.1508 312.441 59.736 310.991 59.736L310.983 59.7413ZM324.978 59.7413C324.466 59.7413 323.868 59.8244 323.441 59.9076C323.35 59.9076 323.268 59.9898 323.35 60.0729L323.432 60.7362C323.432 60.8185 323.432 60.8185 323.517 60.8185H323.602C324.03 60.7362 324.456 60.7362 324.795 60.7362C325.478 60.7362 325.651 60.9016 325.651 61.3155V61.7311H324.635C323.612 61.7311 323.185 62.1441 323.185 63.0559C323.185 63.9668 323.697 64.4638 324.466 64.4638C324.978 64.4638 325.404 64.2984 325.832 64.1331L325.916 64.2984C325.916 64.3816 326.001 64.3816 326.087 64.3816H326.855C326.94 64.3816 327.025 64.2931 327.025 64.2135V61.3933C326.94 60.1508 326.427 59.736 324.978 59.736V59.7413ZM322.418 58.0018H321.393C321.308 58.0018 321.223 58.0849 321.223 58.1671V58.9958C321.223 59.0754 321.308 59.155 321.394 59.155H322.423C322.512 59.155 322.596 59.0701 322.596 58.9869V58.1654C322.596 58.0831 322.512 58 322.423 58L322.418 58.0018Z" fill="#D6DAE5"/>
</svg>
