<svg width="888" height="29" viewBox="0 0 888 29" fill="none" xmlns="http://www.w3.org/2000/svg">
<path fill-rule="evenodd" clip-rule="evenodd" d="M501.316 23.0765C502.111 23.0765 502.744 23.7044 502.744 24.4915C502.744 25.2874 502.111 25.9065 501.309 25.9065C500.515 25.9065 499.87 25.2874 499.87 24.4915C499.87 23.7044 500.515 23.0765 501.309 23.0765H501.316ZM409.376 25.7172H405.442L405.274 24.7533C403.476 25.7172 401.873 25.8747 400.817 25.8747C397.93 25.8747 396.394 24.0069 396.394 21.421C396.394 18.3717 398.186 17.2822 401.392 17.2822H404.653V16.6242C404.653 15.0678 404.471 14.6114 401.993 14.6114H397.97L398.365 10.791H402.778C408.192 10.791 409.38 12.4536 409.38 16.6561V25.7172H409.376ZM467.993 19.7266C467.993 22.8395 466.669 25.8587 461.126 25.8587C455.578 25.8587 454.228 22.8395 454.228 19.7266V16.7197C454.228 13.6068 455.576 10.5876 461.124 10.5876C466.68 10.5876 468.01 13.6068 468.01 16.7215V19.7283L467.993 19.7266ZM483.108 19.7266C483.108 22.8395 481.782 25.8587 476.241 25.8587C470.691 25.8587 469.341 22.8395 469.341 19.7266V16.7197C469.341 13.6068 470.689 10.5876 476.239 10.5876C481.777 10.5876 483.106 13.6068 483.106 16.7215V19.7283L483.108 19.7266ZM501.309 23.2994C500.672 23.2994 500.143 23.83 500.143 24.4897C500.143 25.1619 500.672 25.6889 501.316 25.6889C501.963 25.7066 502.482 25.176 502.482 24.5039C502.482 23.8495 501.963 23.3153 501.316 23.3153H501.309V23.2994ZM393.245 25.6872H388.527V14.615H386.166V10.7945H388.525V8.50402C388.525 5.39107 389.855 3.53745 393.64 3.53745H396.791V7.35789H394.824C393.348 7.35789 393.25 7.88851 393.25 8.88607L393.232 10.7963H396.802L396.383 14.6167H393.234V25.6889L393.245 25.6872ZM501.038 25.3157H500.779V23.7363C500.925 23.7186 501.052 23.7009 501.253 23.7009C501.502 23.7009 501.664 23.7487 501.763 23.8176C501.861 23.8884 501.908 23.9945 501.908 24.1448C501.908 24.3518 501.77 24.4774 501.599 24.5287V24.541C501.737 24.5658 501.835 24.6896 501.872 24.9231C501.908 25.1672 501.945 25.2627 501.97 25.3122H501.697C501.661 25.2627 501.619 25.1176 501.588 24.9125C501.551 24.7091 501.442 24.6348 501.238 24.6348H501.056V25.314L501.038 25.3157ZM501.038 24.4402H501.225C501.438 24.4402 501.619 24.3642 501.619 24.1696C501.619 24.0316 501.517 23.8937 501.225 23.8937C501.141 23.8937 501.08 23.899 501.038 23.9061V24.4402ZM401.114 21.3626C401.114 22.1975 401.522 22.6308 402.418 22.6308C403.383 22.6308 403.952 22.3266 404.655 22.0118V20.3403H402.549C401.551 20.3403 401.114 20.5172 401.114 21.3609V21.3626ZM446.182 14.4009C445.217 14.4009 444.524 14.7016 443.821 15.02V22.0595C444.495 22.1214 444.881 22.1214 445.523 22.1214C447.836 22.1214 448.149 21.0956 448.149 19.6629V16.2952C448.149 15.2411 447.785 14.3903 446.182 14.3903V14.4009ZM461.11 14.4009C459.503 14.4009 458.947 15.2499 458.947 16.2935V20.1493C458.947 21.2105 459.503 22.0595 461.11 22.0595C462.713 22.0595 463.27 21.2105 463.27 20.1493V16.2935C463.27 15.2393 462.705 14.3886 461.102 14.3886L461.11 14.4009ZM422.753 14.8785C420.305 14.4717 419.602 14.3833 418.425 14.3833C416.309 14.3833 415.669 14.8307 415.669 16.5765V19.8663C415.669 21.6085 416.307 22.0595 418.425 22.0595C419.604 22.0595 420.305 21.9711 422.753 21.5643V25.2857C420.609 25.7544 419.212 25.8764 418.032 25.8764C412.964 25.8764 410.95 23.2941 410.95 19.5621V16.8913C410.95 13.1522 412.964 10.5646 418.032 10.5646C419.212 10.5646 420.609 10.6884 422.753 11.1571V14.8785ZM437.526 19.5656H428.87V19.8663C428.87 21.6085 429.508 22.0595 431.624 22.0595C433.528 22.0595 434.685 21.9711 437.129 21.5643V25.2857C434.774 25.7544 433.546 25.8764 431.233 25.8764C426.169 25.8764 424.165 23.2941 424.165 19.5621V16.5022C424.165 13.2354 425.659 10.5593 430.85 10.5593C436.051 10.5593 437.535 13.2035 437.535 16.5022V19.5621L437.526 19.5656ZM476.223 14.4009C474.62 14.4009 474.064 15.2499 474.064 16.2988V20.1599C474.064 21.2211 474.62 22.0701 476.223 22.0701C477.826 22.0701 478.39 21.2211 478.39 20.1599V16.297C478.39 15.2411 477.826 14.3903 476.223 14.3903V14.4009ZM498.622 25.6854H493.509L489.181 18.6813V25.6854H484.463V4.67827L489.181 3.91772V17.4396L493.507 10.7892H498.608L493.881 18.041L498.604 25.6819L498.622 25.6854ZM430.837 14.0118C429.234 14.0118 428.87 14.8608 428.87 15.922V16.511H432.805V15.9167C432.805 14.8732 432.44 14.0171 430.837 14.0171V14.0118ZM452.871 19.6364C452.871 23.2446 451.796 25.88 445.348 25.88C443.024 25.88 441.657 25.6783 439.089 25.2963V4.67473L443.807 3.91418V11.1253C444.827 10.7574 446.147 10.5717 447.35 10.5717C452.067 10.5717 452.851 12.6234 452.851 15.9185V19.6505L452.871 19.6364Z" fill="#D6DAE5"/>
<path fill-rule="evenodd" clip-rule="evenodd" d="M660.261 18.4009C658.567 17.9764 658.567 17.9587 658.567 17.0567C658.567 16.4491 658.629 16.159 660.025 16.159C660.983 16.159 662.393 16.3182 663.3 16.4721C663.424 16.4898 663.551 16.4633 663.653 16.3837C663.755 16.3129 663.821 16.198 663.835 16.0741L664.094 14.0534C664.112 13.8234 663.966 13.6112 663.73 13.5581C662.673 13.3229 661.216 13.169 660.014 13.169C655.806 13.169 654.95 14.7078 654.95 17.0195C654.95 19.5603 655.433 20.4155 658.651 21.176C660.771 21.6713 660.771 22.0383 660.771 22.6485C660.771 23.4497 660.699 23.7274 659.314 23.7274C658.196 23.7274 656.902 23.5594 655.766 23.264C655.638 23.2339 655.511 23.2534 655.402 23.3171C655.292 23.386 655.214 23.4939 655.19 23.6178L654.842 25.5465C654.8 25.7676 654.933 25.9843 655.152 26.0533C656.394 26.4424 658.176 26.7077 659.484 26.7077C663.553 26.7077 664.384 25.0451 664.384 22.5689C664.384 19.8274 663.884 19.3144 660.256 18.3823L660.261 18.4V18.4009ZM649.709 18.4009C648.015 17.9764 648.015 17.9587 648.015 17.0567C648.015 16.4491 648.077 16.159 649.472 16.159C650.429 16.159 651.84 16.3182 652.748 16.4721C652.871 16.4898 652.999 16.4633 653.101 16.3837C653.203 16.3129 653.269 16.198 653.283 16.0741L653.542 14.0534C653.571 13.8234 653.418 13.6112 653.187 13.5581C652.148 13.3229 650.691 13.169 649.489 13.169C645.292 13.169 644.425 14.7078 644.425 17.0195C644.425 19.5603 644.917 20.4155 648.134 21.176C650.254 21.6713 650.254 22.0383 650.254 22.6485C650.254 23.4497 650.181 23.7274 648.797 23.7274C647.676 23.7274 646.383 23.5594 645.245 23.264C645.117 23.2339 644.99 23.2534 644.88 23.3171C644.771 23.386 644.693 23.4939 644.669 23.6178L644.305 25.5368C644.268 25.7579 644.396 25.9755 644.62 26.0444C645.858 26.4336 647.64 26.6989 648.95 26.6989C653.012 26.6989 653.85 25.0363 653.85 22.5601C653.85 19.8185 653.343 19.3056 649.715 18.3735L649.709 18.3912V18.4009ZM612.359 9.10979C612.298 8.9223 612.122 8.79496 611.918 8.79496H607.603C607.403 8.79496 607.221 8.92142 607.161 9.10714L601.717 25.8561C601.675 25.9887 601.699 26.1391 601.786 26.254C601.874 26.369 602.012 26.4371 602.16 26.4371H605.129C605.335 26.4371 605.515 26.3044 605.573 26.1187L609.323 13.7907C609.323 13.7907 609.423 13.4812 609.76 13.4812C610.106 13.4812 610.197 13.7996 610.197 13.7996L611.937 19.6452H609.605C609.405 19.6452 609.223 19.7805 609.168 19.9724L608.494 22.2894C608.458 22.4221 608.494 22.5724 608.567 22.6786C608.658 22.7909 608.804 22.8554 608.95 22.8554H612.93L613.977 26.1214C614.035 26.3071 614.214 26.4344 614.414 26.4344H617.383C617.529 26.4344 617.671 26.3637 617.759 26.2487C617.85 26.132 617.875 25.9834 617.831 25.8472L612.382 9.07972L612.364 9.10802L612.359 9.10979ZM669.1 13.4379H666.367C666.112 13.4379 665.906 13.6386 665.906 13.8862V26.0197C665.906 26.2673 666.114 26.4725 666.369 26.4725H669.101C669.356 26.4725 669.563 26.2717 669.563 26.0214V13.8907C669.563 13.643 669.363 13.4458 669.108 13.4458L669.099 13.4387L669.1 13.4379ZM630.355 8.46774H627.623C627.368 8.46774 627.162 8.66849 627.162 8.91611V26.0197C627.162 26.2673 627.37 26.4725 627.625 26.4725H630.357C630.612 26.4725 630.818 26.2717 630.818 26.0214V8.92054C630.818 8.67291 630.618 8.4757 630.363 8.4757L630.355 8.46863V8.46774ZM691.778 13.177C690.334 13.177 688.362 13.6616 686.696 14.4222L686.495 13.7677C686.441 13.5732 686.258 13.4449 686.053 13.4449H684.032C683.777 13.4449 683.567 13.6457 683.567 13.8933V26.0268C683.567 26.2744 683.767 26.4778 684.022 26.4778H686.755C687.01 26.4778 687.219 26.2779 687.219 26.0268V17.6253C688.203 17.1389 689.587 16.6348 690.41 16.6348C691.025 16.6348 691.253 16.8595 691.253 17.4573V26.0179C691.253 26.2691 691.463 26.4689 691.718 26.4689H694.45C694.705 26.4689 694.911 26.2691 694.911 26.0179V17.1097C694.911 14.5053 693.854 13.1832 691.776 13.1832H691.774L691.778 13.177ZM588.506 20.3907C588.433 20.32 588.329 20.2448 588.15 20.2448C587.923 20.2448 587.79 20.3969 587.739 20.4712C586.464 22.3637 585.808 24.1501 585.717 25.9454C585.714 26.078 585.765 26.2107 585.858 26.308C585.949 26.4141 586.086 26.4672 586.222 26.4672H589.25C589.514 26.4672 589.732 26.2726 589.751 26.025C589.823 25.1583 590.097 24.2916 590.607 23.3896C590.78 23.0712 590.643 22.7794 590.543 22.6529C590.042 22.0162 589.429 21.3441 588.518 20.419L588.515 20.4013L588.506 20.3907ZM639.214 21.6819V23.2445C638.768 23.4922 637.948 23.8282 636.956 23.8282C636.109 23.8282 635.845 23.5806 635.845 22.7493C635.845 21.9534 636.009 21.7022 637.01 21.7022H639.214V21.6828V21.6819ZM678.031 21.6819V23.2445C677.576 23.4922 676.756 23.8282 675.773 23.8282C674.926 23.8282 674.662 23.5806 674.662 22.7493C674.662 21.9534 674.826 21.7022 675.827 21.7022H678.031V21.6828V21.6819ZM625.307 23.8795C625.289 23.7522 625.216 23.6407 625.107 23.57C624.997 23.4992 624.868 23.478 624.74 23.5081C624.249 23.6248 623.793 23.6885 623.429 23.6885C622.755 23.6885 622.445 23.4055 622.445 22.7688V16.3394H625.096C625.351 16.3394 625.558 16.136 625.558 15.8884V13.8809C625.558 13.6333 625.349 13.4299 625.094 13.4299H622.453V10.3444C622.453 10.2117 622.391 10.0905 622.289 10.0039C622.189 9.9181 622.052 9.88007 621.924 9.89776L619.192 10.2692C618.963 10.2984 618.791 10.4876 618.791 10.7114V13.4352H617.3C617.045 13.4352 616.838 13.636 616.838 13.8836V15.8999C616.838 16.1475 617.056 16.3527 617.311 16.3527H618.798V23.1888C618.798 25.5386 620.067 26.7263 622.574 26.7263C623.284 26.7263 624.497 26.5671 625.288 26.3018C625.497 26.231 625.627 26.025 625.592 25.8065L625.296 23.8875L625.305 23.8742L625.307 23.8795ZM637.383 13.1832C635.999 13.1832 634.315 13.3954 633.093 13.7226C632.856 13.7845 632.711 14.0012 632.747 14.2267L633.062 16.1546C633.08 16.2722 633.153 16.3784 633.253 16.4491C633.355 16.5199 633.483 16.5375 633.607 16.5199C634.742 16.3076 635.915 16.1838 636.907 16.1838C638.875 16.1838 639.192 16.5906 639.192 17.8818V19.0138H636.277C633.483 19.0138 632.288 20.1281 632.288 22.7635C632.288 25.275 633.6 26.7077 635.876 26.7077C637.201 26.7077 638.523 26.354 639.634 25.6995L639.753 26.1117C639.807 26.3062 639.989 26.4389 640.199 26.4389H642.418C642.673 26.4389 642.878 26.2355 642.878 25.9878V17.9225C642.878 14.4558 641.394 13.1646 637.396 13.1646L637.379 13.1734L637.383 13.1832ZM676.193 13.1832C674.809 13.1832 673.133 13.3954 671.913 13.7226C671.685 13.7845 671.539 14.0012 671.58 14.2267L671.899 16.1546C671.917 16.2722 671.99 16.3784 672.09 16.4491C672.194 16.5199 672.322 16.5375 672.446 16.5199C673.575 16.3076 674.741 16.1838 675.743 16.1838C677.71 16.1838 678.02 16.5906 678.02 17.8818V19.0138H675.105C672.3 19.0138 671.105 20.1281 671.105 22.7635C671.105 25.275 672.414 26.7077 674.693 26.7077C676.017 26.7077 677.335 26.354 678.446 25.6995L678.564 26.1117C678.619 26.3062 678.801 26.4389 679.01 26.4389H681.215C681.47 26.4389 681.679 26.2355 681.679 25.9878V17.9225C681.679 14.4558 680.194 13.1646 676.196 13.1646L676.201 13.1734L676.193 13.1832ZM600.788 8.5491C600.697 8.48278 600.592 8.44917 600.485 8.44917C600.412 8.44917 600.357 8.45978 600.303 8.48101C599.21 8.88251 598.117 9.1885 597.115 9.41313C596.915 9.46619 596.736 9.60769 596.678 9.78456C595.949 11.7302 594.073 13.5873 592.124 15.5152C592.051 15.586 591.942 15.6921 591.76 15.6921C591.578 15.6921 591.468 15.6037 591.395 15.5276C589.428 13.5909 587.57 11.7514 586.842 9.80578C586.769 9.62891 586.605 9.48741 586.404 9.43435C585.403 9.20442 584.291 8.89489 583.217 8.49693C583.162 8.47924 583.093 8.4704 583.035 8.4704C582.925 8.4704 582.82 8.50577 582.73 8.57033C582.592 8.66761 582.521 8.83564 582.537 8.99482C582.701 10.6097 583.366 12.1874 584.55 13.8411C585.67 15.3976 587.118 16.8391 588.53 18.2311C591.117 20.7958 593.567 23.2189 593.783 26.0312C593.802 26.2823 594.02 26.4787 594.279 26.4787H597.321C597.458 26.4787 597.59 26.4256 597.685 26.3283C597.78 26.231 597.831 26.1019 597.822 25.9693C597.725 24.0918 596.997 22.2107 595.594 20.2183C595.303 19.8026 594.993 19.3958 594.662 18.9978C594.529 18.8387 594.586 18.6353 594.688 18.5362L594.998 18.232C596.406 16.8435 597.857 15.402 598.978 13.8455C600.162 12.1962 600.817 10.6265 600.986 9.01251C601.004 8.8489 600.928 8.67645 600.793 8.57652L600.802 8.56325L600.788 8.5491ZM591.772 9.99946C592.725 9.99946 593.279 9.94021 593.472 9.94021C593.691 9.94021 593.927 10.1171 593.927 10.3824C593.927 10.4531 593.909 10.5062 593.891 10.5593C593.763 10.8847 593.181 12.0662 592.106 13.0797C591.978 13.1929 591.851 13.2141 591.76 13.2141C591.669 13.2141 591.523 13.1929 591.401 13.0797C590.326 12.0662 589.751 10.8865 589.625 10.5557C589.607 10.5027 589.588 10.4496 589.588 10.37C589.588 10.1135 589.813 9.91898 590.047 9.91898C590.242 9.91898 590.794 9.97204 591.749 9.97204H591.752L591.771 9.98973L591.772 9.99946ZM669.098 8.47216H666.373C666.118 8.47216 665.91 8.66672 665.91 8.91434V11.2491C665.91 11.4967 666.118 11.6983 666.373 11.6983H669.105C669.36 11.6983 669.567 11.5038 669.567 11.2561V8.90285C669.567 8.65523 669.36 8.45625 669.105 8.45625L669.098 8.47747V8.47216ZM605.078 2.90245C604.957 2.74327 604.768 2.65483 604.568 2.65483C604.465 2.65483 604.363 2.67605 604.276 2.72558C600.542 4.70655 596.219 5.7554 591.767 5.75717C587.317 5.75717 582.993 4.70655 579.262 2.72381C579.171 2.67075 579.071 2.65306 578.971 2.65306C578.77 2.65306 578.579 2.7415 578.461 2.90068C578.284 3.11293 578.279 3.50205 578.579 3.73198C580.446 5.07621 582.506 6.13745 584.699 6.86263C586.976 7.60549 589.352 7.99461 591.767 7.99461C594.184 7.99461 596.561 7.60549 598.835 6.86263C601.03 6.13745 603.09 5.07621 604.96 3.73198C605.261 3.50205 605.252 3.11293 605.079 2.883V2.90245H605.078Z" fill="#5982E7"/>
<path fill-rule="evenodd" clip-rule="evenodd" d="M876.843 17.6368C876.843 15.3331 875.873 12.6667 872.856 8.94974L865.579 0H855.447L861.215 6.27897C862.187 7.32605 863.425 8.26702 863.425 8.26702C862.022 7.48259 860.246 7.16864 858.843 7.16864C855.503 7.16864 852.107 7.8496 849.089 9.47152C845.856 11.1978 843.697 14.0764 843.697 17.8977C843.697 20.8276 845.047 23.0783 846.771 24.8046C850.651 28.5746 857.712 28.9399 860.3 28.9399C864.127 28.9399 870.11 28.1015 873.504 25.1194C875.5 23.3401 876.847 20.8807 876.847 17.6377L876.843 17.6368ZM888 7.74524H879.215V28.2598H888V7.74524ZM815.779 28.2598L796.375 0H785.488L788.496 3.45343L771.421 28.2598H781.23L784.157 23.6027H802.658L805.645 28.258H815.779V28.2598ZM841.487 19.6771V7.74524H832.973V16.9037C832.973 19.5214 832.864 20.2519 832.702 20.932C832.11 22.8157 830.061 23.6523 827.957 23.6523C825.047 23.6523 823.7 22.553 823.162 20.8258C822.998 20.251 822.946 19.6249 822.893 18.9952C822.838 18.316 822.893 17.5829 822.893 16.7976V7.74524H814.269V19.7283C814.269 22.3991 815.185 24.3863 816.694 25.7482C819.28 28.2067 823.647 28.9407 827.69 28.9407C832.595 28.9407 836.369 28.2598 839.063 25.6951C840.466 24.3863 841.49 22.66 841.49 19.6771H841.487ZM868.436 17.8977C868.436 20.0423 866.981 21.6651 865.149 22.5548C863.64 23.3401 861.861 23.5488 860.297 23.5488C858.734 23.5488 856.902 23.2366 855.392 22.5026C853.56 21.6138 852.159 19.8866 852.159 18.0012C852.159 15.7523 853.937 13.9729 856.039 13.0824C857.332 12.5058 858.896 12.2971 860.135 12.2971C861.321 12.2971 863.047 12.4536 864.393 12.978C866.819 13.9729 868.436 15.8557 868.436 17.8977ZM799.238 18.0879H787.512L793.355 8.726L799.239 18.0879H799.238Z" fill="#D6DAE5"/>
<path fill-rule="evenodd" clip-rule="evenodd" d="M208.213 8.51992C206.153 8.37223 204.407 9.63687 203.433 9.63687C202.444 9.63687 200.919 8.55176 199.303 8.58006C197.18 8.61189 195.223 9.77925 194.129 11.6258C191.924 15.3428 193.567 20.8488 195.714 23.8627C196.764 25.3378 198.017 26.9969 199.662 26.9368C201.247 26.8757 201.845 25.9401 203.76 25.9401C205.673 25.9401 206.214 26.9368 207.888 26.9049C209.592 26.8757 210.674 25.4033 211.715 23.9202C212.922 22.2107 213.419 20.5561 213.448 20.4659C213.409 20.4535 210.124 19.2269 210.092 15.5524C210.062 12.481 212.674 11.0032 212.794 10.9316C211.31 8.81176 209.02 8.57829 208.213 8.51992ZM290.509 20.5172V20.8426C290.509 24.0502 288.093 26.92 283.244 26.92C278.408 26.92 275.534 23.9724 275.534 18.821V16.6693C275.534 11.571 278.422 8.53142 283.256 8.53142C287.796 8.53142 290.509 11.3101 290.509 14.7786V14.9607H286.868C286.868 13.2008 285.714 11.6355 283.283 11.6355C280.691 11.6355 279.387 13.3176 279.387 16.6693V18.821C279.387 22.2116 280.678 23.7902 283.309 23.7902C285.929 23.7902 286.868 22.3549 286.868 20.5172H290.509ZM224.309 21.5342H224.362L227.627 8.81883H231.481L234.758 21.5342H234.812L237.848 8.81883H241.904L236.814 26.621H232.958L229.587 14.4522H229.52L226.148 26.621H222.321L217.217 8.81883H221.274L224.309 21.5342ZM298.352 15.9654H305.846V8.81883H309.661V26.621H305.846V19.0306H298.352V26.621H294.552V8.81883H298.352V15.9654ZM273.076 8.81883V11.8964H267.61V26.621H263.822V11.8964H258.37V8.81883H273.076ZM252.54 8.81883L258.436 26.6202H254.366L253.059 22.1338H247.26L245.932 26.6202H242.131L248.041 8.81883H252.54ZM252.264 19.3958L250.204 12.3271H250.164L248.072 19.3958H252.264ZM206.858 6.62473C205.979 7.6046 204.593 8.35012 203.233 8.24842C203.04 6.85467 203.751 5.40077 204.56 4.49165C205.462 3.46756 206.984 2.70082 208.243 2.65306C208.405 4.07335 207.816 5.50424 206.941 6.52834L206.9 6.57698L206.858 6.62473Z" fill="#D6DAE5"/>
<path fill-rule="evenodd" clip-rule="evenodd" d="M14.9321 23.2004C14.7617 23.2004 14.677 23.2835 14.677 23.2835C14.677 23.2835 12.5431 24.9461 8.7024 24.9461C4.86351 24.9452 2.73231 23.2826 2.73231 23.2826C2.73231 23.2826 2.56199 23.2004 2.47729 23.2004C2.30607 23.2004 2.13484 23.2835 2.13484 23.532V23.6142C2.47638 25.3547 2.73231 26.5972 2.73231 26.7626C2.98732 28.006 5.5484 29 8.61952 29C11.6915 29 14.2517 28.006 14.5076 26.7626C14.5076 26.5972 14.7627 25.3547 15.0996 23.6142V23.532C15.1816 23.3657 15.0996 23.2004 14.9266 23.2004H14.9321ZM32.2531 19.1411C33.3624 18.561 33.7895 17.7323 33.7895 16.488V14.7485C33.7895 12.2634 32.2531 11.0218 29.0107 11.0218H22.5261C22.271 11.0218 22.0998 11.1881 22.0998 11.4375V27.6743C22.0998 27.9237 22.2701 28.09 22.5261 28.09H29.5226C32.5946 28.09 34.3861 26.5981 34.3861 24.0308V22.2886C34.3861 20.7984 33.6183 19.639 32.2531 19.1402V19.1411ZM38.909 15.4949H36.2677C36.0127 15.4949 35.8397 15.6612 35.8397 15.9106V27.6743C35.8397 27.922 36.0127 28.09 36.2677 28.09H38.9181C39.1731 28.09 39.3461 27.922 39.3461 27.6743V15.9097C39.3461 15.6621 39.1731 15.494 38.9181 15.494L38.909 15.4949ZM102.481 15.2473C98.9013 15.2473 97.1071 16.9868 97.1071 20.2174V23.4489C97.1071 26.7634 98.9013 28.3376 102.654 28.3376C104.193 28.3376 105.814 28.09 107.18 27.5912C107.351 27.509 107.521 27.3436 107.435 27.0942L107.009 25.2724C107.009 25.1884 106.924 25.023 106.839 25.023C106.753 24.9399 106.584 24.9399 106.497 24.9399C105.304 25.2715 104.109 25.4378 103 25.4378C101.037 25.4378 100.696 24.8576 100.696 23.532V23.1163H107.266C107.521 23.1163 107.694 22.9518 107.694 22.7033V20.3837C107.608 16.9037 105.987 15.2455 102.489 15.2455L102.481 15.2473ZM55.6398 25.3555C54.9567 25.3555 54.4467 25.3555 53.9367 25.2715V18.8864C54.7053 18.5504 55.729 18.2232 56.4959 18.2232C57.5205 18.2232 57.9477 18.6388 57.9477 19.5497V23.2729C57.9477 24.6817 57.6061 25.3449 55.6434 25.3449L55.6398 25.3555ZM116.306 25.6032C116.306 25.52 116.224 25.3555 116.139 25.2715C116.054 25.1831 115.884 25.1831 115.798 25.1831C115.286 25.2627 114.86 25.3511 114.518 25.3511C113.835 25.3511 113.58 25.1035 113.58 24.4402V18.2232H116.139C116.394 18.2232 116.564 18.0551 116.564 17.8075V15.9061C116.564 15.6585 116.394 15.4905 116.139 15.4905H113.579V12.5102C113.579 12.3422 113.492 12.2581 113.406 12.1759C113.321 12.0928 113.151 12.0928 113.065 12.0928L110.421 12.4288C110.166 12.4288 109.993 12.6764 109.993 12.8418V15.4931H108.545C108.29 15.4931 108.116 15.6594 108.116 15.9088V17.8128C108.116 18.0604 108.29 18.2285 108.545 18.2285H109.993V24.8541C109.993 27.0915 111.189 28.2501 113.663 28.2501C114.346 28.2501 115.539 28.0865 116.308 27.8344C116.479 27.7548 116.65 27.5868 116.563 27.3392L116.308 25.6005L116.306 25.6032ZM48.8163 25.6032C48.8163 25.52 48.7316 25.3555 48.646 25.2715C48.5613 25.1831 48.391 25.1831 48.3054 25.1831C47.8773 25.2627 47.3673 25.3511 47.0257 25.3511C46.3427 25.3511 46.0876 25.1035 46.0876 24.4402V18.2232H48.6469C48.9019 18.2232 49.075 18.0551 49.075 17.8075V15.9061C49.075 15.6585 48.9019 15.4905 48.6469 15.4905H46.0849V12.5102C46.0849 12.3422 45.9993 12.2581 45.9137 12.1759C45.8281 12.0928 45.6587 12.0928 45.5721 12.0928L42.9291 12.4288C42.6741 12.4288 42.5038 12.6764 42.5038 12.8418V15.4931H41.0484C40.7933 15.4931 40.6203 15.6594 40.6203 15.9088V17.8128C40.6203 18.0604 40.7915 18.2285 41.0484 18.2285H42.4983V24.8541C42.4983 27.0915 43.6914 28.2501 46.166 28.2501C46.849 28.2501 48.0422 28.0865 48.8072 27.8344C48.9802 27.7548 49.1487 27.5868 49.0622 27.3392L48.8072 25.6005L48.8163 25.6032ZM84.227 25.4378C84.227 25.3547 84.1414 25.1884 84.0567 25.1062C83.972 25.023 83.8017 25.023 83.7161 25.023C82.9483 25.1884 82.1805 25.2706 81.4118 25.2706C79.7059 25.2706 79.2788 24.8576 79.2788 23.4489V20.0529C79.2788 18.6432 79.7906 18.2294 81.4118 18.2294C81.8399 18.2294 82.778 18.3125 83.7161 18.477C83.8008 18.477 83.9711 18.477 84.0567 18.3947C84.1405 18.3125 84.2261 18.2294 84.2261 18.0631L84.5695 16.075C84.5695 15.8274 84.4829 15.6612 84.227 15.578C83.2042 15.2464 82.0093 15.1624 81.3271 15.1624C77.3161 15.1624 75.694 16.5721 75.694 20.0529V23.3657C75.694 26.8457 77.3152 28.2545 81.3244 28.2545C82.2625 28.2545 83.3718 28.0891 84.2252 27.8388C84.4802 27.7575 84.5667 27.5912 84.5667 27.3436L84.2243 25.4378H84.227ZM25.6919 25.1062H28.8504C30.2166 25.1062 30.7266 24.7745 30.7266 23.6974V22.4504C30.7266 21.3715 30.3022 20.9558 29.1054 20.9558H27.9943C27.7393 20.9558 27.5662 20.7878 27.5662 20.5402V18.4805C27.5662 18.2311 27.7393 18.0649 27.9943 18.0649H28.5918C29.7011 18.0649 30.1273 17.651 30.1273 16.657V15.1642C30.1273 14.584 29.9616 14.0039 28.5972 14.0039H25.6837V25.1062H25.6919ZM73.6439 15.4949H71.0026C70.7476 15.4949 70.5746 15.6612 70.5746 15.9106V24.029C69.6365 24.526 68.2703 25.023 67.5053 25.023C66.9069 25.023 66.6492 24.7754 66.6492 24.1944V15.9159C66.6492 15.6682 66.4761 15.5002 66.2211 15.5002H63.5717C63.3167 15.5002 63.1454 15.6682 63.1454 15.9159V24.5322C63.1454 27.0173 64.1673 28.3438 66.2147 28.3438C67.5809 28.3438 69.5427 27.8459 71.1638 27.1004L71.3342 27.7637C71.4225 27.9299 71.5937 28.0962 71.7622 28.0962H73.7267C73.9818 28.0962 74.153 27.9282 74.153 27.6805V15.9097C74.0674 15.7416 73.898 15.494 73.6411 15.494L73.6439 15.4949ZM8.70604 9.53077C3.92541 9.53077 0 10.7715 0 12.3457C0 12.7613 1.0237 18.6424 1.45086 20.9629C1.62117 22.0392 4.43818 23.5311 8.70331 23.5311C12.9694 23.5311 15.6998 22.0454 15.9558 20.9665C16.3747 18.6494 17.4039 12.7684 17.4039 12.3528C17.3128 10.7786 13.4785 9.53696 8.69693 9.53696L8.70604 9.53077ZM8.70604 21.6262C7.1714 21.6262 5.97647 20.4659 5.97647 18.9749C5.97647 17.4803 7.16957 16.3218 8.70513 16.3218C10.2407 16.3218 11.4356 17.4803 11.4356 18.9749C11.4356 20.381 10.2407 21.6191 8.70513 21.6191L8.70604 21.6262ZM96.5934 27.3427L93.0943 21.7093L96.5096 16.1644C96.5943 15.9963 96.5943 15.8354 96.5096 15.7487C96.4231 15.5869 96.2528 15.5011 96.0816 15.5011H93.1808C93.0096 15.5011 92.8383 15.5869 92.7527 15.7487L89.5104 21.222V11.1049C89.5104 10.8555 89.3373 10.6893 89.0823 10.6893H86.4365C86.1815 10.6893 86.0085 10.8555 86.0085 11.1049V27.5894C86.0085 27.8371 86.1815 28.0051 86.4365 28.0051H89.0814C89.3364 28.0051 89.5095 27.8371 89.5095 27.5894V22.2037L92.9194 27.8371C93.005 28.0051 93.1744 28.0873 93.2609 28.0873H96.1608C96.4158 28.0873 96.5889 27.9211 96.5889 27.6717C96.6727 27.5072 96.6727 27.4241 96.5889 27.3409L96.5934 27.3427ZM100.604 20.3032V19.8875C100.604 18.6494 101.2 18.1542 102.48 18.1542C103.931 18.1542 104.187 18.8175 104.187 19.8964V20.312H100.604V20.3032ZM8.70695 17.5696C9.45925 17.5696 10.0731 18.1692 10.0731 18.8962C10.0731 19.6302 9.45925 20.2227 8.70695 20.2227C7.95466 20.2227 7.3408 19.6302 7.3408 18.8962C7.3408 18.1692 7.95284 17.5696 8.70695 17.5696ZM57.4276 15.2526C56.148 15.2526 54.7828 15.5869 53.9303 15.9159V11.1934C53.9303 10.9457 53.7591 10.7777 53.5022 10.7777H50.8573C50.6023 10.7777 50.4293 10.9457 50.4293 11.1934V27.5983C50.4293 27.8459 50.6023 28.0139 50.7708 28.0139C52.392 28.2616 54.3547 28.4296 55.464 28.4296C60.4131 28.4296 61.4368 26.3584 61.4368 23.2914V19.7275C61.4368 16.7472 60.0707 15.2526 57.4267 15.2526H57.4276ZM36.2668 13.758C36.0118 13.758 35.8388 13.5918 35.8388 13.3424V11.1049C35.8388 10.8555 36.0118 10.6893 36.2668 10.6893H38.9126C39.1694 10.6893 39.3407 10.9387 39.3407 11.1049V13.3406C39.3407 13.5882 39.1694 13.7563 38.9126 13.7563H36.2668V13.758ZM8.70513 13.1743C5.63219 13.1743 3.15855 12.6791 3.15855 12.0158C3.15855 11.3526 5.63219 10.8555 8.70513 10.8555C11.7762 10.8555 14.2517 11.3526 14.2517 12.0141C14.2517 12.6773 11.7762 13.1752 8.70513 13.1752V13.1743ZM42.92 6.63006C42.4938 6.63006 41.8107 6.4638 41.4691 6.21441C41.3872 6.21441 41.3872 6.13305 41.3872 6.04992L41.5575 5.38665L41.6395 5.3044H41.8098C42.2378 5.39284 42.6622 5.47243 43.0885 5.47243C43.6076 5.47243 43.6076 5.31325 43.6076 5.05678C43.6076 4.8976 43.6076 4.72957 42.838 4.56154C41.6449 4.31392 41.4719 3.9867 41.4719 3.07581C41.4719 2.24805 41.7287 1.66968 43.2661 1.66968C43.6914 1.66968 44.2889 1.74927 44.6322 1.83417C44.6322 1.83417 44.7142 1.9173 44.7142 1.99954L44.6295 2.74241L44.5448 2.82554H44.3736C44.2224 2.82554 44.0402 2.8105 43.8544 2.79282L43.6932 2.7769C43.5074 2.75921 43.3253 2.74152 43.1759 2.74152C42.6641 2.74152 42.6641 2.82377 42.6641 3.07227C42.6641 3.40833 42.6641 3.40833 43.2615 3.57282C44.5402 3.90534 44.7097 4.15385 44.7097 5.14699C44.7097 6.05257 44.3727 6.63095 42.9519 6.63979H42.9191L42.92 6.63006ZM39.1631 6.63006C38.653 6.63006 38.0547 6.4638 37.4572 6.21441C37.3716 6.21441 37.3716 6.13305 37.3716 6.04992L37.5428 5.38665L37.6339 5.3044H37.8069C38.2323 5.39284 38.6594 5.47243 39.0857 5.47243C39.5957 5.47243 39.5957 5.31325 39.5957 5.05678C39.5957 4.8976 39.5957 4.72957 38.8288 4.56154C37.6357 4.31392 37.4627 3.9867 37.4627 3.07581C37.4627 2.24805 37.7204 1.66968 39.2569 1.66968C39.6831 1.66968 40.2806 1.74927 40.623 1.83417C40.7068 1.83417 40.7924 1.9173 40.7924 1.99954L40.7086 2.74594L40.6249 2.82819H40.5338C40.3853 2.82819 40.2032 2.8105 40.0174 2.79282L39.8571 2.77778C39.6713 2.76009 39.4891 2.74594 39.3379 2.74594C38.8188 2.74594 38.8188 2.82554 38.8188 3.07316C38.8188 3.40656 38.8188 3.40656 39.4181 3.57194C40.6977 3.90534 40.8689 4.15385 40.9536 5.1461C40.9536 6.05257 40.6167 6.63183 39.1959 6.64068H39.1631V6.63006ZM54.6097 1.74131C54.0969 1.74131 53.4139 1.90757 52.7317 2.15696L52.6461 1.90757C52.6461 1.82444 52.5614 1.82444 52.4758 1.82444H51.708C51.6224 1.82444 51.5368 1.90757 51.5368 1.98981V6.38244C51.5368 6.4638 51.6224 6.54693 51.708 6.54693H52.7317C52.8173 6.54693 52.902 6.4638 52.902 6.38156V3.3137C53.2436 3.14833 53.7554 2.98295 54.0969 2.98295C54.352 2.98295 54.4385 3.0652 54.4385 3.3137V6.38244C54.4385 6.4638 54.5232 6.54693 54.6088 6.54693H55.6289C55.7108 6.54693 55.8019 6.4638 55.8019 6.38156V3.14568C55.7108 2.15165 55.3738 1.73689 54.6088 1.73689L54.6097 1.74131ZM46.4173 1.82444H45.3927C45.308 1.82444 45.2233 1.90757 45.2233 1.98981V6.38244C45.2233 6.4638 45.308 6.54693 45.3936 6.54693H46.4228C46.5121 6.54693 46.5959 6.4638 46.5959 6.38156V1.98716C46.5959 1.90492 46.5121 1.82179 46.4228 1.82179L46.4173 1.82444ZM32.4234 0.00265309H31.3997C31.315 0.00265309 31.2294 0.0848987 31.2294 0.167144V6.38244C31.2294 6.4638 31.3113 6.54693 31.3933 6.54693H32.4225C32.5044 6.54693 32.59 6.4638 32.59 6.38156V0.165376C32.59 0.08313 32.5044 -1.30726e-08 32.4197 -1.30726e-08L32.4234 0.00265309ZM25.9387 0.250274C25.9387 0.167144 25.854 0.167144 25.7684 0.167144H24.2328C24.1472 0.167144 24.0616 0.250274 24.0616 0.250274L22.0943 6.29931V6.4638C22.0943 6.54693 22.1763 6.54693 22.261 6.54693H23.3722C23.4559 6.54693 23.5406 6.4638 23.5406 6.4638L24.9068 1.98893C24.9068 1.98893 24.9068 1.90757 25.0771 1.90757C25.1609 1.90757 25.2465 1.98981 25.2465 1.98981L25.8449 4.06187H24.9906C24.9032 4.06187 24.8175 4.14412 24.8175 4.14412L24.5625 4.96658V5.1293C24.5625 5.1293 24.6472 5.21243 24.7328 5.21243H26.181L26.5234 6.37271C26.5234 6.45407 26.609 6.45407 26.6946 6.45407H27.8058C27.8914 6.45407 27.8914 6.45407 27.9788 6.37006V6.20203L25.9387 0.24939V0.250274ZM34.7276 5.55291C35.1557 5.55291 35.4107 5.46978 35.581 5.38753V4.72426H34.7276C34.3861 4.72426 34.3014 4.88964 34.3014 5.13814C34.3014 5.46713 34.3852 5.55114 34.7203 5.55379H34.7276V5.55291ZM30.6319 5.55291C30.6319 5.46978 30.6319 5.46978 30.5472 5.46978H30.376C30.2057 5.55291 30.0344 5.55291 29.8641 5.55291C29.6091 5.55291 29.5226 5.46978 29.5226 5.22127V2.81846H30.4607C30.5472 2.81846 30.6319 2.73622 30.6319 2.65309V1.98981C30.6319 1.90757 30.5472 1.82444 30.4616 1.82444H29.5235V0.664156C29.5235 0.58191 29.5235 0.58191 29.4379 0.58191C29.4379 0.58191 29.3523 0.502318 29.2667 0.58191L28.2429 0.749939C28.1573 0.749939 28.0726 0.838375 28.0726 0.917968V1.90845H27.5608C27.4788 1.90845 27.3968 1.99512 27.3968 2.07648V2.82377C27.3968 2.90778 27.4843 2.9918 27.5699 2.9918H28.0827V5.47685C28.0827 6.30462 28.5089 6.71938 29.4488 6.71938C29.7038 6.71938 30.1301 6.63537 30.3869 6.55135C30.7275 6.38598 30.7275 6.38598 30.7275 6.30373L30.6419 5.55733L30.6319 5.55291ZM48.8063 5.55291C49.2344 5.55291 49.4894 5.46978 49.6597 5.38753V4.72426H48.8063C48.4657 4.72426 48.3801 4.88964 48.3801 5.13814C48.3801 5.46713 48.4638 5.55114 48.799 5.55379H48.8063V5.55291ZM34.9826 1.74131C34.4726 1.74131 33.8742 1.82444 33.448 1.90757C33.3624 1.90757 33.2777 1.98981 33.3624 2.07294L33.4535 2.73622C33.4535 2.81846 33.4535 2.81846 33.5427 2.81846H33.6274C34.0555 2.73622 34.4808 2.73622 34.8205 2.73622C35.5036 2.73622 35.6748 2.90159 35.6748 3.31547V3.73112H34.6457C33.621 3.73112 33.1948 4.14412 33.1948 5.0559C33.1948 5.96679 33.7066 6.4638 34.4744 6.4638C34.9845 6.4638 35.4125 6.29843 35.8388 6.13305V6.29843C35.8388 6.38156 35.9244 6.38156 36.0091 6.38156H36.7778C36.8597 6.38156 36.9508 6.29312 36.9508 6.21353V3.3933C36.9508 2.15077 36.4408 1.736 34.9908 1.736L34.9826 1.74131ZM48.9775 1.74131C48.4657 1.74131 47.8682 1.82444 47.441 1.90757C47.35 1.90757 47.268 1.98981 47.35 2.07294L47.4319 2.73622C47.4319 2.81846 47.4319 2.81846 47.5166 2.81846H47.6023C48.0303 2.73622 48.4556 2.73622 48.7954 2.73622C49.4784 2.73622 49.6515 2.90159 49.6515 3.31547V3.73112H48.6351C47.6123 3.73112 47.1851 4.14412 47.1851 5.0559C47.1851 5.96679 47.697 6.4638 48.4657 6.4638C48.9775 6.4638 49.4038 6.29843 49.8318 6.13305L49.9156 6.29843C49.9156 6.38156 50.0012 6.38156 50.0868 6.38156H50.8546C50.9402 6.38156 51.0249 6.29312 51.0249 6.21353V3.3933C50.9402 2.15077 50.4275 1.736 48.9775 1.736V1.74131ZM46.4183 0.00176874H45.3927C45.308 0.00176874 45.2233 0.0848987 45.2233 0.167144V0.995792C45.2233 1.07538 45.308 1.15498 45.3936 1.15498H46.4228C46.5121 1.15498 46.5959 1.07008 46.5959 0.986948V0.165376C46.5959 0.08313 46.5121 -1.30726e-08 46.4228 -1.30726e-08L46.4183 0.00176874Z" fill="#D6DAE5"/>
</svg>
